<svg width="24" height="24" viewBox="0 0 24 24" fill="none" xmlns="http://www.w3.org/2000/svg">
<path fill-rule="evenodd" clip-rule="evenodd" d="M13.5727 1.20698L21.1288 5.30029C22.1937 5.87713 22.8571 6.99086 22.8571 8.2019V16.0329C22.8571 17.2439 22.1937 18.9232 21.1288 19.5L13.5727 23.4C12.592 23.9312 11.4095 23.9312 10.4289 23.4L2.87269 19.5C1.80786 18.9232 1.14453 17.2439 1.14453 16.0329V8.2019C1.14453 6.99086 1.80786 5.87713 2.87269 5.30029L10.4289 1.20698C11.4095 0.675798 12.592 0.675798 13.5727 1.20698Z" fill="url(#paint0_bronze)"/>
<path fill-rule="evenodd" clip-rule="evenodd" d="M13.5632 1.57968L21.0802 5.48881C22.1396 6.0397 22.7995 7.10332 22.7995 8.25987L22.7992 15.7385C22.7992 16.8951 22.1393 17.8083 21.0799 18.3592L13.5632 21.8392C12.5877 22.3466 11.4113 22.3466 10.4358 21.8392L2.91842 18.3592C1.85911 17.8083 1.19922 16.8951 1.19922 15.7385L1.19949 8.25987C1.19949 7.10332 1.85938 6.0397 2.9187 5.48881L10.4358 1.57968C11.4113 1.0724 12.5877 1.0724 13.5632 1.57968Z" fill="url(#paint1_bronze)"/>
<path opacity="0.65" fill-rule="evenodd" clip-rule="evenodd" d="M18.4568 9.15532L17.5028 15.5855C17.4548 15.909 17.1771 16.1487 16.85 16.1487H9.21859C8.85409 16.1487 8.55859 15.8531 8.55859 15.4887C8.55859 15.2807 8.65655 15.085 8.82294 14.9603L17.4082 8.53022C17.7 8.3117 18.1136 8.37108 18.3321 8.66282C18.4377 8.8038 18.4826 8.98111 18.4568 9.15532Z" fill="white"/>
<path opacity="0.65" fill-rule="evenodd" clip-rule="evenodd" d="M6.59089 8.53018L15.1762 14.9603C15.4679 15.1788 15.5273 15.5925 15.3088 15.8842C15.1841 16.0506 14.9884 16.1486 14.7806 16.1486H7.14917C6.82206 16.1486 6.54431 15.909 6.49631 15.5854L5.54239 9.15529C5.4889 8.79473 5.73784 8.45907 6.0984 8.40559C6.27262 8.37974 6.44993 8.42459 6.59089 8.53018Z" fill="white"/>
<path opacity="0.9" fill-rule="evenodd" clip-rule="evenodd" d="M12.5344 6.35358L17.2287 15.304C17.398 15.6268 17.2736 16.0257 16.9508 16.195C16.8562 16.2447 16.7511 16.2706 16.6443 16.2706H7.2557C6.89119 16.2706 6.5957 15.9751 6.5957 15.6106C6.5957 15.5038 6.62161 15.3986 6.67121 15.304L11.3655 6.35358C11.5348 6.03078 11.9337 5.90634 12.2565 6.07564C12.3753 6.13791 12.4722 6.23486 12.5344 6.35358Z" fill="white"/>
<defs>
<linearGradient id="paint0_bronze" x1="12.0008" y1="0.808595" x2="12.0008" y2="23.4262" gradientUnits="userSpaceOnUse">
<stop stop-color="#CD8A52"/>
<stop offset="0.31026" stop-color="#CD8A52"/>
<stop offset="1" stop-color="#33221A"/>
</linearGradient>
<linearGradient id="paint1_bronze" x1="11.9992" y1="1.19922" x2="11.9992" y2="22.7992" gradientUnits="userSpaceOnUse">
<stop stop-color="#C08654"/>
<stop offset="0.461538" stop-color="#C28956"/>
<stop offset="1" stop-color="#C08654"/>
</linearGradient>
</defs>
</svg>